  0
SECTION
  2
HEADER
  9
$ACADVER
  1
AC1009
  9
$EXTMIN
 10
0.0
 20
0.0
 30
0.0
  9
$EXTMAX
 10
1000.0
 20
1000.0
 30
0.0
  9
$FILLMODE
 70
 0
  9
$SPLFRAME
 70
 1
  0
ENDSEC
  0
SECTION
  2
TABLES
  0
TABLE
  2
LAYER
 70
1
  0
LAYER
  2
0
 70
     0
 62
     7
  6
CONTINUOUS
  0
ENDTAB
  0
ENDSEC
  0
SECTION
  2
ENTITIES
  0
POLYLINE
  8
0
 62
     254
 66
     1
 10
0
 20
0
 30
0.0
 70
     1
 40
0
 41
0
  0
VERTEX
  8
0
 10
0.0859375
 20
0.778375
 30
0.0
 40
0
 41
0
  0
VERTEX
  8
0
 10
0.0227864
 20
1.01042
 30
0.0
 40
0
 41
0
  0
VERTEX
  8
0
 10
0.0135091
 20
1.23975
 30
0.0
 40
0
 41
0
  0
VERTEX
  8
0
 10
0.0504015
 20
1.46089
 30
0.0
 40
0
 41
0
  0
VERTEX
  8
0
 10
0.12576
 20
1.66818
 30
0.0
 40
0
 41
0
  0
VERTEX
  8
0
 10
0.231933
 20
1.85622
 30
0.0
 40
0
 41
0
  0
VERTEX
  8
0
 10
0.361219
 20
2.01938
 30
0.0
 40
0
 41
0
  0
VERTEX
  8
0
 10
0.50586
 20
2.15201
 30
0.0
 40
0
 41
0
  0
VERTEX
  8
0
 10
0.658311
 20
2.24869
 30
0.0
 40
0
 41
0
  0
VERTEX
  8
0
 10
0.818685
 20
2.31293
 30
0.0
 40
0
 41
0
  0
VERTEX
  8
0
 10
0.974935
 20
2.34983
 30
0.0
 40
0
 41
0
  0
VERTEX
  8
0
 10
1.12478
 20
2.36828
 30
0.0
 40
0
 41
0
  0
VERTEX
  8
0
 10
1.26617
 20
2.37722
 30
0.0
 40
0
 41
0
  0
VERTEX
  8
0
 10
1.39675
 20
2.38558
 30
0.0
 40
0
 41
0
  0
VERTEX
  8
0
 10
1.51443
 20
2.40213
 30
0.0
 40
0
 41
0
  0
VERTEX
  8
0
 10
1.61697
 20
2.43587
 30
0.0
 40
0
 41
0
  0
VERTEX
  8
0
 10
1.70215
 20
2.49561
 30
0.0
 40
0
 41
0
  0
VERTEX
  8
0
 10
1.84885
 20
2.67051
 30
0.0
 40
0
 41
0
  0
VERTEX
  8
0
 10
1.98958
 20
2.88813
 30
0.0
 40
0
 41
0
  0
VERTEX
  8
0
 10
2.12967
 20
3.14236
 30
0.0
 40
0
 41
0
  0
VERTEX
  8
0
 10
2.27458
 20
3.42719
 30
0.0
 40
0
 41
0
  0
VERTEX
  8
0
 10
2.31392
 20
3.50331
 30
0.0
 40
0
 41
0
  0
VERTEX
  8
0
 10
2.36615
 20
3.59212
 30
0.0
 40
0
 41
0
  0
VERTEX
  8
0
 10
2.43343
 20
3.68668
 30
0.0
 40
0
 41
0
  0
VERTEX
  8
0
 10
2.5179
 20
3.78
 30
0.0
 40
0
 41
0
  0
VERTEX
  8
0
 10
2.62175
 20
3.86496
 30
0.0
 40
0
 41
0
  0
VERTEX
  8
0
 10
2.74718
 20
3.93457
 30
0.0
 40
0
 41
0
  0
VERTEX
  8
0
 10
2.89632
 20
3.98182
 30
0.0
 40
0
 41
0
  0
VERTEX
  8
0
 10
3.07146
 20
3.99962
 30
0.0
 40
0
 41
0
  0
VERTEX
  8
0
 10
3.25814
 20
3.9899
 30
0.0
 40
0
 41
0
  0
VERTEX
  8
0
 10
3.42279
 20
3.95757
 30
0.0
 40
0
 41
0
  0
VERTEX
  8
0
 10
3.56808
 20
3.90056
 30
0.0
 40
0
 41
0
  0
VERTEX
  8
0
 10
3.6965
 20
3.81668
 30
0.0
 40
0
 41
0
  0
VERTEX
  8
0
 10
3.8106
 20
3.70372
 30
0.0
 40
0
 41
0
  0
VERTEX
  8
0
 10
3.91297
 20
3.55957
 30
0.0
 40
0
 41
0
  0
VERTEX
  8
0
 10
4.00618
 20
3.38211
 30
0.0
 40
0
 41
0
  0
VERTEX
  8
0
 10
4.09283
 20
3.16906
 30
0.0
 40
0
 41
0
  0
VERTEX
  8
0
 10
4.13574
 20
3.0325
 30
0.0
 40
0
 41
0
  0
VERTEX
  8
0
 10
4.16222
 20
2.90603
 30
0.0
 40
0
 41
0
  0
VERTEX
  8
0
 10
4.17367
 20
2.78901
 30
0.0
 40
0
 41
0
  0
VERTEX
  8
0
 10
4.17133
 20
2.68078
 30
0.0
 40
0
 41
0
  0
VERTEX
  8
0
 10
4.15657
 20
2.58078
 30
0.0
 40
0
 41
0
  0
VERTEX
  8
0
 10
4.13075
 20
2.48833
 30
0.0
 40
0
 41
0
  0
VERTEX
  8
0
 10
4.09511
 20
2.40289
 30
0.0
 40
0
 41
0
  0
VERTEX
  8
0
 10
4.05106
 20
2.32378
 30
0.0
 40
0
 41
0
  0
VERTEX
  8
0
 10
3.99989
 20
2.25037
 30
0.0
 40
0
 41
0
  0
VERTEX
  8
0
 10
3.94293
 20
2.18207
 30
0.0
 40
0
 41
0
  0
VERTEX
  8
0
 10
3.88151
 20
2.11828
 30
0.0
 40
0
 41
0
  0
VERTEX
  8
0
 10
3.81694
 20
2.05832
 30
0.0
 40
0
 41
0
  0
VERTEX
  8
0
 10
3.7506
 20
2.00163
 30
0.0
 40
0
 41
0
  0
VERTEX
  8
0
 10
3.68381
 20
1.94749
 30
0.0
 40
0
 41
0
  0
VERTEX
  8
0
 10
3.61783
 20
1.8954
 30
0.0
 40
0
 41
0
  0
VERTEX
  8
0
 10
3.5541
 20
1.84461
 30
0.0
 40
0
 41
0
  0
VERTEX
  8
0
 10
3.4426
 20
1.76818
 30
0.0
 40
0
 41
0
  0
VERTEX
  8
0
 10
3.32747
 20
1.70856
 30
0.0
 40
0
 41
0
  0
VERTEX
  8
0
 10
3.20919
 20
1.65528
 30
0.0
 40
0
 41
0
  0
VERTEX
  8
0
 10
3.08826
 20
1.59771
 30
0.0
 40
0
 41
0
  0
VERTEX
  8
0
 10
2.96528
 20
1.5255
 30
0.0
 40
0
 41
0
  0
VERTEX
  8
0
 10
2.84065
 20
1.42794
 30
0.0
 40
0
 41
0
  0
VERTEX
  8
0
 10
2.715
 20
1.29471
 30
0.0
 40
0
 41
0
  0
VERTEX
  8
0
 10
2.58886
 20
1.11507
 30
0.0
 40
0
 41
0
  0
VERTEX
  8
0
 10
2.51167
 20
0.984104
 30
0.0
 40
0
 41
0
  0
VERTEX
  8
0
 10
2.46599
 20
0.895996
 30
0.0
 40
0
 41
0
  0
VERTEX
  8
0
 10
2.4414
 20
0.836262
 30
0.0
 40
0
 41
0
  0
VERTEX
  8
0
 10
2.42768
 20
0.79031
 30
0.0
 40
0
 41
0
  0
VERTEX
  8
0
 10
2.41444
 20
0.743599
 30
0.0
 40
0
 41
0
  0
VERTEX
  8
0
 10
2.39139
 20
0.681478
 30
0.0
 40
0
 41
0
  0
VERTEX
  8
0
 10
2.34819
 20
0.58941
 30
0.0
 40
0
 41
0
  0
VERTEX
  8
0
 10
2.27458
 20
0.452854
 30
0.0
 40
0
 41
0
  0
VERTEX
  8
0
 10
2.20481
 20
0.339356
 30
0.0
 40
0
 41
0
  0
VERTEX
  8
0
 10
2.1346
 20
0.249186
 30
0.0
 40
0
 41
0
  0
VERTEX
  8
0
 10
2.05849
 20
0.179144
 30
0.0
 40
0
 41
0
  0
VERTEX
  8
0
 10
1.97103
 20
0.125922
 30
0.0
 40
0
 41
0
  0
VERTEX
  8
0
 10
1.86675
 20
0.0862087
 30
0.0
 40
0
 41
0
  0
VERTEX
  8
0
 10
1.74029
 20
0.0566949
 30
0.0
 40
0
 41
0
  0
VERTEX
  8
0
 10
1.58621
 20
0.0341254
 30
0.0
 40
0
 41
0
  0
VERTEX
  8
0
 10
1.39908
 20
0.0151367
 30
0.0
 40
0
 41
0
  0
VERTEX
  8
0
 10
1.20589
 20
0.0157335
 30
0.0
 40
0
 41
0
  0
VERTEX
  8
0
 10
1.00922
 20
0.0491536
 30
0.0
 40
0
 41
0
  0
VERTEX
  8
0
 10
0.814888
 20
0.11263
 30
0.0
 40
0
 41
0
  0
VERTEX
  8
0
 10
0.628851
 20
0.203179
 30
0.0
 40
0
 41
0
  0
VERTEX
  8
0
 10
0.456976
 20
0.317925
 30
0.0
 40
0
 41
0
  0
VERTEX
  8
0
 10
0.305285
 20
0.453939
 30
0.0
 40
0
 41
0
  0
VERTEX
  8
0
 10
0.179633
 20
0.608399
 30
0.0
 40
0
 41
0
  0
VERTEX
  8
0
 10
0.0859375
 20
0.778375
 30
0.0
 40
0
 41
0
  0
SEQEND
 8
0
  0
POLYLINE
  8
0
 62
     0
 66
     1
 10
0
 20
0
 30
0.0
 70
     1
 40
1.6
 41
1.6
  0
VERTEX
  8
0
 10
0.0859375
 20
0.778375
 30
0.0
 40
0.0222222
 41
0.0222222
  0
VERTEX
  8
0
 10
0.0227864
 20
1.01042
 30
0.0
 40
0.0222222
 41
0.0222222
  0
VERTEX
  8
0
 10
0.0135091
 20
1.23975
 30
0.0
 40
0.0222222
 41
0.0222222
  0
VERTEX
  8
0
 10
0.0504015
 20
1.46089
 30
0.0
 40
0.0222222
 41
0.0222222
  0
VERTEX
  8
0
 10
0.12576
 20
1.66818
 30
0.0
 40
0.0222222
 41
0.0222222
  0
VERTEX
  8
0
 10
0.231933
 20
1.85622
 30
0.0
 40
0.0222222
 41
0.0222222
  0
VERTEX
  8
0
 10
0.361219
 20
2.01938
 30
0.0
 40
0.0222222
 41
0.0222222
  0
VERTEX
  8
0
 10
0.50586
 20
2.15201
 30
0.0
 40
0.0222222
 41
0.0222222
  0
VERTEX
  8
0
 10
0.658311
 20
2.24869
 30
0.0
 40
0.0222222
 41
0.0222222
  0
VERTEX
  8
0
 10
0.818685
 20
2.31293
 30
0.0
 40
0.0222222
 41
0.0222222
  0
VERTEX
  8
0
 10
0.974935
 20
2.34983
 30
0.0
 40
0.0222222
 41
0.0222222
  0
VERTEX
  8
0
 10
1.12478
 20
2.36828
 30
0.0
 40
0.0222222
 41
0.0222222
  0
VERTEX
  8
0
 10
1.26617
 20
2.37722
 30
0.0
 40
0.0222222
 41
0.0222222
  0
VERTEX
  8
0
 10
1.39675
 20
2.38558
 30
0.0
 40
0.0222222
 41
0.0222222
  0
VERTEX
  8
0
 10
1.51443
 20
2.40213
 30
0.0
 40
0.0222222
 41
0.0222222
  0
VERTEX
  8
0
 10
1.61697
 20
2.43587
 30
0.0
 40
0.0222222
 41
0.0222222
  0
VERTEX
  8
0
 10
1.70215
 20
2.49561
 30
0.0
 40
0.0222222
 41
0.0222222
  0
VERTEX
  8
0
 10
1.84885
 20
2.67051
 30
0.0
 40
0.0222222
 41
0.0222222
  0
VERTEX
  8
0
 10
1.98958
 20
2.88813
 30
0.0
 40
0.0222222
 41
0.0222222
  0
VERTEX
  8
0
 10
2.12967
 20
3.14236
 30
0.0
 40
0.0222222
 41
0.0222222
  0
VERTEX
  8
0
 10
2.27458
 20
3.42719
 30
0.0
 40
0.0222222
 41
0.0222222
  0
VERTEX
  8
0
 10
2.31392
 20
3.50331
 30
0.0
 40
0.0222222
 41
0.0222222
  0
VERTEX
  8
0
 10
2.36615
 20
3.59212
 30
0.0
 40
0.0222222
 41
0.0222222
  0
VERTEX
  8
0
 10
2.43343
 20
3.68668
 30
0.0
 40
0.0222222
 41
0.0222222
  0
VERTEX
  8
0
 10
2.5179
 20
3.78
 30
0.0
 40
0.0222222
 41
0.0222222
  0
VERTEX
  8
0
 10
2.62175
 20
3.86496
 30
0.0
 40
0.0222222
 41
0.0222222
  0
VERTEX
  8
0
 10
2.74718
 20
3.93457
 30
0.0
 40
0.0222222
 41
0.0222222
  0
VERTEX
  8
0
 10
2.89632
 20
3.98182
 30
0.0
 40
0.0222222
 41
0.0222222
  0
VERTEX
  8
0
 10
3.07146
 20
3.99962
 30
0.0
 40
0.0222222
 41
0.0222222
  0
VERTEX
  8
0
 10
3.25814
 20
3.9899
 30
0.0
 40
0.0222222
 41
0.0222222
  0
VERTEX
  8
0
 10
3.42279
 20
3.95757
 30
0.0
 40
0.0222222
 41
0.0222222
  0
VERTEX
  8
0
 10
3.56808
 20
3.90056
 30
0.0
 40
0.0222222
 41
0.0222222
  0
VERTEX
  8
0
 10
3.6965
 20
3.81668
 30
0.0
 40
0.0222222
 41
0.0222222
  0
VERTEX
  8
0
 10
3.8106
 20
3.70372
 30
0.0
 40
0.0222222
 41
0.0222222
  0
VERTEX
  8
0
 10
3.91297
 20
3.55957
 30
0.0
 40
0.0222222
 41
0.0222222
  0
VERTEX
  8
0
 10
4.00618
 20
3.38211
 30
0.0
 40
0.0222222
 41
0.0222222
  0
VERTEX
  8
0
 10
4.09283
 20
3.16906
 30
0.0
 40
0.0222222
 41
0.0222222
  0
VERTEX
  8
0
 10
4.13574
 20
3.0325
 30
0.0
 40
0.0222222
 41
0.0222222
  0
VERTEX
  8
0
 10
4.16222
 20
2.90603
 30
0.0
 40
0.0222222
 41
0.0222222
  0
VERTEX
  8
0
 10
4.17367
 20
2.78901
 30
0.0
 40
0.0222222
 41
0.0222222
  0
VERTEX
  8
0
 10
4.17133
 20
2.68078
 30
0.0
 40
0.0222222
 41
0.0222222
  0
VERTEX
  8
0
 10
4.15657
 20
2.58078
 30
0.0
 40
0.0222222
 41
0.0222222
  0
VERTEX
  8
0
 10
4.13075
 20
2.48833
 30
0.0
 40
0.0222222
 41
0.0222222
  0
VERTEX
  8
0
 10
4.09511
 20
2.40289
 30
0.0
 40
0.0222222
 41
0.0222222
  0
VERTEX
  8
0
 10
4.05106
 20
2.32378
 30
0.0
 40
0.0222222
 41
0.0222222
  0
VERTEX
  8
0
 10
3.99989
 20
2.25037
 30
0.0
 40
0.0222222
 41
0.0222222
  0
VERTEX
  8
0
 10
3.94293
 20
2.18207
 30
0.0
 40
0.0222222
 41
0.0222222
  0
VERTEX
  8
0
 10
3.88151
 20
2.11828
 30
0.0
 40
0.0222222
 41
0.0222222
  0
VERTEX
  8
0
 10
3.81694
 20
2.05832
 30
0.0
 40
0.0222222
 41
0.0222222
  0
VERTEX
  8
0
 10
3.7506
 20
2.00163
 30
0.0
 40
0.0222222
 41
0.0222222
  0
VERTEX
  8
0
 10
3.68381
 20
1.94749
 30
0.0
 40
0.0222222
 41
0.0222222
  0
VERTEX
  8
0
 10
3.61783
 20
1.8954
 30
0.0
 40
0.0222222
 41
0.0222222
  0
VERTEX
  8
0
 10
3.5541
 20
1.84461
 30
0.0
 40
0.0222222
 41
0.0222222
  0
VERTEX
  8
0
 10
3.4426
 20
1.76818
 30
0.0
 40
0.0222222
 41
0.0222222
  0
VERTEX
  8
0
 10
3.32747
 20
1.70856
 30
0.0
 40
0.0222222
 41
0.0222222
  0
VERTEX
  8
0
 10
3.20919
 20
1.65528
 30
0.0
 40
0.0222222
 41
0.0222222
  0
VERTEX
  8
0
 10
3.08826
 20
1.59771
 30
0.0
 40
0.0222222
 41
0.0222222
  0
VERTEX
  8
0
 10
2.96528
 20
1.5255
 30
0.0
 40
0.0222222
 41
0.0222222
  0
VERTEX
  8
0
 10
2.84065
 20
1.42794
 30
0.0
 40
0.0222222
 41
0.0222222
  0
VERTEX
  8
0
 10
2.715
 20
1.29471
 30
0.0
 40
0.0222222
 41
0.0222222
  0
VERTEX
  8
0
 10
2.58886
 20
1.11507
 30
0.0
 40
0.0222222
 41
0.0222222
  0
VERTEX
  8
0
 10
2.51167
 20
0.984104
 30
0.0
 40
0.0222222
 41
0.0222222
  0
VERTEX
  8
0
 10
2.46599
 20
0.895996
 30
0.0
 40
0.0222222
 41
0.0222222
  0
VERTEX
  8
0
 10
2.4414
 20
0.836262
 30
0.0
 40
0.0222222
 41
0.0222222
  0
VERTEX
  8
0
 10
2.42768
 20
0.79031
 30
0.0
 40
0.0222222
 41
0.0222222
  0
VERTEX
  8
0
 10
2.41444
 20
0.743599
 30
0.0
 40
0.0222222
 41
0.0222222
  0
VERTEX
  8
0
 10
2.39139
 20
0.681478
 30
0.0
 40
0.0222222
 41
0.0222222
  0
VERTEX
  8
0
 10
2.34819
 20
0.58941
 30
0.0
 40
0.0222222
 41
0.0222222
  0
VERTEX
  8
0
 10
2.27458
 20
0.452854
 30
0.0
 40
0.0222222
 41
0.0222222
  0
VERTEX
  8
0
 10
2.20481
 20
0.339356
 30
0.0
 40
0.0222222
 41
0.0222222
  0
VERTEX
  8
0
 10
2.1346
 20
0.249186
 30
0.0
 40
0.0222222
 41
0.0222222
  0
VERTEX
  8
0
 10
2.05849
 20
0.179144
 30
0.0
 40
0.0222222
 41
0.0222222
  0
VERTEX
  8
0
 10
1.97103
 20
0.125922
 30
0.0
 40
0.0222222
 41
0.0222222
  0
VERTEX
  8
0
 10
1.86675
 20
0.0862087
 30
0.0
 40
0.0222222
 41
0.0222222
  0
VERTEX
  8
0
 10
1.74029
 20
0.0566949
 30
0.0
 40
0.0222222
 41
0.0222222
  0
VERTEX
  8
0
 10
1.58621
 20
0.0341254
 30
0.0
 40
0.0222222
 41
0.0222222
  0
VERTEX
  8
0
 10
1.39908
 20
0.0151367
 30
0.0
 40
0.0222222
 41
0.0222222
  0
VERTEX
  8
0
 10
1.20589
 20
0.0157335
 30
0.0
 40
0.0222222
 41
0.0222222
  0
VERTEX
  8
0
 10
1.00922
 20
0.0491536
 30
0.0
 40
0.0222222
 41
0.0222222
  0
VERTEX
  8
0
 10
0.814888
 20
0.11263
 30
0.0
 40
0.0222222
 41
0.0222222
  0
VERTEX
  8
0
 10
0.628851
 20
0.203179
 30
0.0
 40
0.0222222
 41
0.0222222
  0
VERTEX
  8
0
 10
0.456976
 20
0.317925
 30
0.0
 40
0.0222222
 41
0.0222222
  0
VERTEX
  8
0
 10
0.305285
 20
0.453939
 30
0.0
 40
0.0222222
 41
0.0222222
  0
VERTEX
  8
0
 10
0.179633
 20
0.608399
 30
0.0
 40
0.0222222
 41
0.0222222
  0
VERTEX
  8
0
 10
0.0859375
 20
0.778375
 30
0.0
 40
0.0222222
 41
0.0222222
  0
SEQEND
 8
0
  0
POLYLINE
  8
0
 62
     0
 66
     1
 10
0
 20
0
 30
0.0
 70
     1
 40
1.65466
 41
1.65466
  0
VERTEX
  8
0
 10
2.11057
 20
1.26096
 30
0.0
 40
0.0229814
 41
0.0229814
  0
VERTEX
  8
0
 10
2.09608
 20
1.15278
 30
0.0
 40
0.0229814
 41
0.0229814
  0
VERTEX
  8
0
 10
2.05464
 20
1.05203
 30
0.0
 40
0.0229814
 41
0.0229814
  0
VERTEX
  8
0
 10
1.98904
 20
0.960829
 30
0.0
 40
0.0229814
 41
0.0229814
  0
VERTEX
  8
0
 10
1.90218
 20
0.881401
 30
0.0
 40
0.0229814
 41
0.0229814
  0
VERTEX
  8
0
 10
1.79688
 20
0.81581
 30
0.0
 40
0.0229814
 41
0.0229814
  0
VERTEX
  8
0
 10
1.676
 20
0.766331
 30
0.0
 40
0.0229814
 41
0.0229814
  0
VERTEX
  8
0
 10
1.54249
 20
0.735081
 30
0.0
 40
0.0229814
 41
0.0229814
  0
VERTEX
  8
0
 10
1.39908
 20
0.724121
 30
0.0
 40
0.0229814
 41
0.0229814
  0
VERTEX
  8
0
 10
1.2557
 20
0.735081
 30
0.0
 40
0.0229814
 41
0.0229814
  0
VERTEX
  8
0
 10
1.12212
 20
0.766331
 30
0.0
 40
0.0229814
 41
0.0229814
  0
VERTEX
  8
0
 10
1.0013
 20
0.81581
 30
0.0
 40
0.0229814
 41
0.0229814
  0
VERTEX
  8
0
 10
0.895996
 20
0.881401
 30
0.0
 40
0.0229814
 41
0.0229814
  0
VERTEX
  8
0
 10
0.809136
 20
0.960829
 30
0.0
 40
0.0229814
 41
0.0229814
  0
VERTEX
  8
0
 10
0.743544
 20
1.05203
 30
0.0
 40
0.0229814
 41
0.0229814
  0
VERTEX
  8
0
 10
0.702094
 20
1.15278
 30
0.0
 40
0.0229814
 41
0.0229814
  0
VERTEX
  8
0
 10
0.687663
 20
1.26096
 30
0.0
 40
0.0229814
 41
0.0229814
  0
VERTEX
  8
0
 10
0.702094
 20
1.36919
 30
0.0
 40
0.0229814
 41
0.0229814
  0
VERTEX
  8
0
 10
0.743544
 20
1.46994
 30
0.0
 40
0.0229814
 41
0.0229814
  0
VERTEX
  8
0
 10
0.809136
 20
1.56114
 30
0.0
 40
0.0229814
 41
0.0229814
  0
VERTEX
  8
0
 10
0.895996
 20
1.64057
 30
0.0
 40
0.0229814
 41
0.0229814
  0
VERTEX
  8
0
 10
1.0013
 20
1.70617
 30
0.0
 40
0.0229814
 41
0.0229814
  0
VERTEX
  8
0
 10
1.12212
 20
1.75564
 30
0.0
 40
0.0229814
 41
0.0229814
  0
VERTEX
  8
0
 10
1.2557
 20
1.78689
 30
0.0
 40
0.0229814
 41
0.0229814
  0
VERTEX
  8
0
 10
1.39908
 20
1.79779
 30
0.0
 40
0.0229814
 41
0.0229814
  0
VERTEX
  8
0
 10
1.54249
 20
1.78689
 30
0.0
 40
0.0229814
 41
0.0229814
  0
VERTEX
  8
0
 10
1.676
 20
1.75564
 30
0.0
 40
0.0229814
 41
0.0229814
  0
VERTEX
  8
0
 10
1.79688
 20
1.70617
 30
0.0
 40
0.0229814
 41
0.0229814
  0
VERTEX
  8
0
 10
1.90218
 20
1.64057
 30
0.0
 40
0.0229814
 41
0.0229814
  0
VERTEX
  8
0
 10
1.98904
 20
1.56114
 30
0.0
 40
0.0229814
 41
0.0229814
  0
VERTEX
  8
0
 10
2.05464
 20
1.46994
 30
0.0
 40
0.0229814
 41
0.0229814
  0
VERTEX
  8
0
 10
2.09608
 20
1.36919
 30
0.0
 40
0.0229814
 41
0.0229814
  0
VERTEX
  8
0
 10
2.11057
 20
1.26096
 30
0.0
 40
0.0229814
 41
0.0229814
  0
SEQEND
 8
0
  0
ENDSEC
  0
EOF
